<?xml version="1.0" encoding="utf-8"?>
<svg viewBox="0 0 24 24" fill="none" xmlns="http://www.w3.org/2000/svg">
  <g id="XMLReader" transform="matrix(0.9999999999999999, 0, 0, 0.9999999999999999, 0, 0)">
    <g id="Vector">
      <path d="M16.9999 20.04C17.5742 20.04 18.0397 19.5745 18.0397 19.0002C18.0397 18.426 17.5742 17.9604 16.9999 17.9604C16.4257 17.9604 15.9601 18.426 15.9601 19.0002C15.9601 19.5745 16.4257 20.04 16.9999 20.04Z" style="fill: rgb(202, 197, 218);"/>
      <path fill-rule="evenodd" clip-rule="evenodd" d="M11 19C11.94 16.66 14.27 15 17 15C19.73 15 22.06 16.66 23 19C22.06 21.34 19.73 23 17 23C14.27 23 11.94 21.34 11 19ZM19.5328 19.0003C19.5328 20.3882 18.3988 21.5133 17 21.5133C15.6012 21.5133 14.4672 20.3882 14.4672 19.0003C14.4672 17.6124 15.6012 16.4873 17 16.4873C18.3988 16.4873 19.5328 17.6124 19.5328 19.0003Z" style="fill: rgb(202, 197, 218);"/>
      <path fill-rule="evenodd" clip-rule="evenodd" d="M2.97119 4.03955C2.97119 2.93498 3.86662 2.03955 4.97119 2.03955H19.0288C20.1334 2.03955 21.0288 2.93498 21.0288 4.03955V14.1219C19.7719 13.329 18.3182 12.876 16.7683 12.876C13.1066 12.876 9.98129 15.4051 8.72046 18.9703C9.11674 20.0908 9.69719 21.109 10.4206 21.9785H4.97119C3.86662 21.9785 2.97119 21.0831 2.97119 19.9785V4.03955ZM8.8551 4.95654L7.86416 8.06404L8.98017 11.1812H7.57554L6.92133 9.00687L6.26712 11.1812H4.85287L5.96888 8.06404L4.99718 4.95654H6.3056L6.92133 6.96727L7.53706 4.95654H8.8551ZM10.9252 11.1812H9.5783V6.13027C9.5783 5.28365 9.97596 4.86033 10.7713 4.86033H11.4832C11.9514 4.86033 12.2849 5.01427 12.4838 5.32213C12.6698 5.01427 13.0033 4.86033 13.4843 4.86033H14.1963C14.9916 4.86033 15.3892 5.28365 15.3892 6.13027V11.1812H14.0423V6.01482C14.0423 5.96351 14.0231 5.91861 13.9846 5.88013C13.9525 5.84165 13.9108 5.82241 13.8595 5.82241H13.34C13.2887 5.82241 13.2438 5.84165 13.2053 5.88013C13.1733 5.91861 13.1572 5.96351 13.1572 6.01482V11.1812H11.8103V6.01482C11.8103 5.96351 11.7911 5.91861 11.7526 5.88013C11.7205 5.84165 11.6788 5.82241 11.6275 5.82241H11.108C11.0567 5.82241 11.0118 5.84165 10.9733 5.88013C10.9412 5.91861 10.9252 5.96351 10.9252 6.01482V11.1812ZM17.6618 10.0459H19.1338V11.1812H16.3149V4.95654H17.6618V10.0459Z" style="fill: rgb(202, 197, 218);"/>
    </g>
  </g>
</svg>
