<svg width="80" height="80" viewBox="0 0 80 80" fill="none" xmlns="http://www.w3.org/2000/svg">
<path d="M20.2123 29.7081C20.2123 25.7728 23.4021 22.5831 27.3365 22.5831H67.7027V63.7495C67.7027 66.3729 65.5763 68.5001 62.9534 68.5001H29.7095C24.4646 68.5001 20.2123 64.2469 20.2123 59.0007V29.7081Z" fill="url(#paint0_radial_1523_177)"/>
<path d="M20.2123 29.7081C20.2123 25.7728 23.4021 22.5831 27.3365 22.5831H67.7027V63.7495C67.7027 66.3729 65.5763 68.5001 62.9534 68.5001H29.7095C24.4646 68.5001 20.2123 64.2469 20.2123 59.0007V29.7081Z" fill="url(#paint1_radial_1523_177)"/>
<path d="M20.2123 37.6257C20.2123 33.69 23.4021 30.5007 27.3365 30.5007H48.7066C46.0837 30.5007 43.9573 32.6275 43.9573 35.2509V44.7507C43.9573 47.3736 41.8314 49.5009 39.208 49.5009H29.7109C24.4655 49.5009 20.2137 53.754 20.2137 59.0007V37.6257H20.2123Z" fill="url(#paint2_linear_1523_177)"/>
<path d="M20.2123 37.6257C20.2123 33.69 23.4021 30.5007 27.3365 30.5007H48.7066C46.0837 30.5007 43.9573 32.6275 43.9573 35.2509V44.7507C43.9573 47.3736 41.8314 49.5009 39.208 49.5009H29.7109C24.4655 49.5009 20.2137 53.754 20.2137 59.0007V37.6257H20.2123Z" fill="url(#paint3_linear_1523_177)"/>
<path d="M20.2123 20.9995C20.2123 15.7533 24.4646 11.5001 29.7095 11.5001H48.7057L48.7066 30.5007H29.7095C24.4646 30.5007 20.2123 34.7539 20.2123 40.0001V20.9995Z" fill="url(#paint4_linear_1523_177)"/>
<path d="M20.2123 20.9995C20.2123 15.7533 24.4646 11.5001 29.7095 11.5001H48.7057L48.7066 30.5007H29.7095C24.4646 30.5007 20.2123 34.7539 20.2123 40.0001V20.9995Z" fill="url(#paint5_radial_1523_177)"/>
<path d="M20.2123 20.9995C20.2123 15.7533 24.4646 11.5001 29.7095 11.5001H48.7057L48.7066 30.5007H29.7095C24.4646 30.5007 20.2123 34.7539 20.2123 40.0001V20.9995Z" fill="url(#paint6_linear_1523_177)"/>
<path d="M48.7057 11.5001H62.9521C65.575 11.5001 67.7014 13.6265 67.7014 16.2494V25.7515C67.7014 28.3743 65.575 30.5007 62.9521 30.5007H48.7066C46.0837 30.5007 43.9564 28.3743 43.9564 25.7515V16.2494C43.9564 13.6265 46.0828 11.5001 48.7057 11.5001Z" fill="url(#paint7_radial_1523_177)"/>
<path d="M17.4421 38.4166H32.4798C35.3214 38.4166 37.625 40.7202 37.625 43.5613V58.6048C37.625 61.4464 35.3214 63.7495 32.4798 63.7495H17.4421C14.601 63.7495 12.2974 61.4464 12.2974 58.6048V43.5613C12.2974 40.7202 14.601 38.4166 17.4421 38.4166Z" fill="url(#paint8_radial_1523_177)"/>
<path d="M17.4421 38.4166H32.4798C35.3214 38.4166 37.625 40.7202 37.625 43.5613V58.6048C37.625 61.4464 35.3214 63.7495 32.4798 63.7495H17.4421C14.601 63.7495 12.2974 61.4464 12.2974 58.6048V43.5613C12.2974 40.7202 14.601 38.4166 17.4421 38.4166Z" fill="url(#paint9_radial_1523_177)"/>
<path d="M31.6181 58.3212H27.7136L25.2626 53.7073C25.1749 53.5456 25.1077 53.4178 25.0609 53.3234C25.0208 53.2228 24.9763 53.1079 24.9295 52.9801H24.8899C24.8293 53.1422 24.7723 53.2731 24.7189 53.3733C24.665 53.4748 24.6013 53.5991 24.5274 53.7474L21.9851 58.3198H18.3028L22.7217 51.0719L18.6061 43.8441H22.4594L24.6379 47.9632C24.7256 48.1315 24.8 48.2798 24.8601 48.4076C24.9273 48.5283 24.9946 48.673 25.0618 48.8418H25.1019C25.1954 48.6472 25.2693 48.4918 25.3241 48.3778C25.3847 48.2638 25.4657 48.1124 25.5659 47.9245L27.8254 43.8463H31.4975L27.3213 50.9637L31.619 58.3221L31.6181 58.3212Z" fill="white"/>
<defs>
<radialGradient id="paint0_radial_1523_177" cx="0" cy="0" r="1" gradientTransform="matrix(-52.3284 -58.5916 -42.7096 43.2049 67.864 72.9997)" gradientUnits="userSpaceOnUse">
<stop offset="0.06" stop-color="#379539"/>
<stop offset="0.42" stop-color="#297C2D"/>
<stop offset="0.7" stop-color="#15561C"/>
</radialGradient>
<radialGradient id="paint1_radial_1523_177" cx="0" cy="0" r="1" gradientTransform="matrix(-22.1243 -22.765 -16.5497 18.2178 29.0558 32.2311)" gradientUnits="userSpaceOnUse">
<stop stop-color="#073B10" stop-opacity="0.698039"/>
<stop offset="0.99" stop-color="#084A13" stop-opacity="0"/>
</radialGradient>
<linearGradient id="paint2_linear_1523_177" x1="12.2974" y1="39.9997" x2="54.7266" y2="39.9997" gradientUnits="userSpaceOnUse">
<stop stop-color="#52D17C"/>
<stop offset="0.33" stop-color="#4AA647"/>
</linearGradient>
<linearGradient id="paint3_linear_1523_177" x1="39.9991" y1="11.4997" x2="39.9991" y2="51.0919" gradientUnits="userSpaceOnUse">
<stop stop-color="#29852F" stop-opacity="0.301961"/>
<stop offset="0.5" stop-color="#4AA647" stop-opacity="0"/>
</linearGradient>
<linearGradient id="paint4_linear_1523_177" x1="14.7491" y1="58.19" x2="67.1786" y2="13.9778" gradientUnits="userSpaceOnUse">
<stop stop-color="#66D052"/>
<stop offset="1" stop-color="#85E972"/>
</linearGradient>
<radialGradient id="paint5_radial_1523_177" cx="0" cy="0" r="1" gradientUnits="userSpaceOnUse" gradientTransform="translate(66.3064 35.0089) rotate(-180) scale(27.773 60.4565)">
<stop offset="0.29" stop-color="#4EB43B"/>
<stop offset="1" stop-color="#72CC61" stop-opacity="0"/>
</radialGradient>
<linearGradient id="paint6_linear_1523_177" x1="37.2756" y1="40.0001" x2="12.2974" y2="40.0001" gradientUnits="userSpaceOnUse">
<stop offset="0.18" stop-color="#C0E075" stop-opacity="0"/>
<stop offset="1" stop-color="#D1EB95"/>
</linearGradient>
<radialGradient id="paint7_radial_1523_177" cx="0" cy="0" r="1" gradientTransform="matrix(-62.4701 -64.9918 50.4008 -80.1053 75.5036 77.1955)" gradientUnits="userSpaceOnUse">
<stop offset="0.44" stop-color="#79E96D"/>
<stop offset="1" stop-color="#D0EB76"/>
</radialGradient>
<radialGradient id="paint8_radial_1523_177" cx="0" cy="0" r="1" gradientTransform="matrix(55.3945 56.9967 157.751 -162.28 13.9252 11.806)" gradientUnits="userSpaceOnUse">
<stop stop-color="#20A85E"/>
<stop offset="0.94" stop-color="#09442A"/>
</radialGradient>
<radialGradient id="paint9_radial_1523_177" cx="0" cy="0" r="1" gradientUnits="userSpaceOnUse" gradientTransform="translate(40.6323 45.704) rotate(90) scale(39.9038 44.6842)">
<stop offset="0.58" stop-color="#33A662" stop-opacity="0"/>
<stop offset="0.97" stop-color="#98F0B0" stop-opacity="0.301961"/>
</radialGradient>
</defs>
</svg>
