<svg width="80" height="80" viewBox="0 0 80 80" fill="none" xmlns="http://www.w3.org/2000/svg">
<path d="M37.4678 59.9678C35.2088 57.5576 35.1416 57.4535 35.5479 56.9975C36.1915 56.2752 63.6476 31.1457 64.0345 30.9154C64.3755 30.7185 67.7409 32.3434 68.4771 33.0602C68.759 33.3349 66.5718 35.673 54.6391 47.8471C46.844 55.8026 40.3128 62.3484 40.1378 62.3853C39.9567 62.4253 38.7549 61.3341 37.4678 59.9604V59.9678ZM31.3108 53.5635C30.0928 52.3391 29.3226 51.3773 29.4 51.1773C29.5388 50.8155 45.3201 38.058 45.6149 38.0672C45.9787 38.0808 49.6926 40.903 49.6926 41.1655C49.6926 41.442 33.8278 55.6116 33.5145 55.6116C33.4222 55.6116 32.4292 54.6884 31.3071 53.5607L31.3108 53.5635ZM25.5628 47.6767C24.6092 46.6117 24.0104 45.7512 24.1394 45.6315C24.8044 45.0106 31.6664 40.252 31.893 40.2547C32.2619 40.2593 35.5737 43.0988 35.5737 43.4111C35.5737 43.7946 28.1424 49.5147 27.644 49.5147C27.404 49.5147 26.4675 48.6876 25.5628 47.6767ZM20.8337 42.8233C19.4684 41.4423 19.3053 41.1843 19.6148 40.8969C20.0592 40.484 41.8735 26.4048 42.3157 26.2389C42.6647 26.1123 45.6859 27.9415 45.6859 28.2796C45.6859 28.5212 23.3258 44.1813 22.7823 44.3195C22.5661 44.375 21.7486 43.7463 20.8337 42.8206V42.8233ZM35.3811 40.5993C34.4805 39.8518 33.7485 39.1114 33.7541 38.9539C33.7596 38.7964 34.5553 38.1122 35.5211 37.4328C36.4876 36.7539 40.8186 33.6554 45.1488 30.547C49.4761 27.4385 53.1954 24.8948 53.4128 24.8948C53.9953 24.8948 56.9442 26.5992 56.8493 26.882C56.7126 27.2922 37.7875 41.9545 37.3914 41.9545C37.1859 41.9564 36.2812 41.346 35.3802 40.5984L35.3811 40.5993ZM16.4391 38.4038C15.3639 37.2669 15.2082 36.9924 15.4892 36.7363C15.7328 36.5142 29.2443 28.533 30.875 27.6467C31.1449 27.5002 34.0093 29.5667 33.9181 29.8412C33.7996 30.1968 18.5599 39.7637 18.1085 39.7637C17.8933 39.7639 17.1384 39.1518 16.4308 38.4038H16.4391ZM49.1085 38.4948C48.1199 37.7853 47.2724 37.0898 47.2254 36.9497C47.1588 36.7496 56.1224 29.3002 58.152 27.8657C58.5474 27.5868 58.8583 27.6797 60.5539 28.583C61.6253 29.1538 62.4997 29.7365 62.4978 29.8784C62.4929 30.2411 51.8199 39.6258 51.3224 39.7179C51.094 39.757 50.098 39.2086 49.1085 38.499V38.4948ZM12.8 34.5479L11.5 33.2314L12.077 32.8574C12.3944 32.6518 18.8366 29.1381 26.3941 25.0484L40.1307 17.6135L41.4445 18.2578C42.167 18.6121 42.7582 19.0221 42.7582 19.1688C42.7582 19.3695 14.5111 35.8628 14.1702 35.8628C14.1327 35.8628 13.517 35.2704 12.8021 34.5462L12.8 34.5479ZM33.9254 27.9108C33.2886 27.4329 32.7683 26.9149 32.7692 26.7601C32.7699 26.6054 35.3452 24.9627 38.4914 23.109L44.2118 19.7398L45.6803 20.5226C46.4881 20.9532 47.1489 21.3887 47.1489 21.49C47.1489 21.779 35.9274 28.795 35.4852 28.7867C35.2653 28.783 34.5643 28.3883 33.9273 27.9102L33.9254 27.9108ZM45.3864 26.4533C44.6156 25.9769 43.987 25.4593 43.9897 25.3017C43.9944 25.036 47.8905 22.4263 48.5299 22.2605C48.8238 22.1844 51.4459 23.5678 51.6578 23.9105C51.7216 24.0139 51.5845 24.2671 51.3531 24.4732C50.5614 25.178 47.3113 27.3329 47.0497 27.3265C46.906 27.3229 46.1574 26.9297 45.3864 26.4533Z" fill="#50ABF1"/>
</svg>
