<?xml version="1.0" encoding="utf-8"?>
<svg viewBox="0 0 24 24" fill="none" xmlns="http://www.w3.org/2000/svg">
  <g id="CSVReader" transform="matrix(0.9999999999999999, 0, 0, 0.9999999999999999, 0, 0)">
    <g id="Subtract">
      <path fill-rule="evenodd" clip-rule="evenodd" d="M4.97119 2.03955C3.86662 2.03955 2.97119 2.93498 2.97119 4.03955V19.9785C2.97119 21.0831 3.86662 21.9785 4.97119 21.9785H10.4206C9.69719 21.109 9.11674 20.0908 8.72046 18.9703C9.98129 15.4051 13.1066 12.876 16.7683 12.876C18.3182 12.876 19.7719 13.329 21.0288 14.1219V4.03955C21.0288 2.93498 20.1334 2.03955 19.0288 2.03955H4.97119ZM8.21595 9.11616V10.028C8.21595 10.0766 8.19772 10.1192 8.16124 10.1556C8.13085 10.1921 8.09134 10.2103 8.04271 10.2103H7.46827C7.41964 10.2103 7.37709 10.1921 7.34062 10.1556C7.31022 10.1192 7.29503 10.0766 7.29503 10.028V6.05249C7.29503 6.00386 7.31022 5.96131 7.34062 5.92483C7.37709 5.88836 7.41964 5.87012 7.46827 5.87012H8.04271C8.09134 5.87012 8.13085 5.88836 8.16124 5.92483C8.19772 5.96131 8.21595 6.00386 8.21595 6.05249V6.7637H9.42866V6.20749C9.42866 5.4051 9.05178 5.00391 8.29802 5.00391H7.14914C6.39537 5.00391 6.01849 5.4051 6.01849 6.20749V9.88208C6.01849 10.6845 6.39537 11.0857 7.14914 11.0857H8.29802C9.05178 11.0857 9.42866 10.6845 9.42866 9.88208V9.11616H8.21595ZM12.2553 6.64516H13.468V6.20749C13.468 5.4051 13.0912 5.00391 12.3374 5.00391H11.3253C10.5715 5.00391 10.1946 5.4051 10.1946 6.20749V7.38373C10.1946 8.18612 10.5715 8.58731 11.3253 8.58731H12.1459C12.1945 8.58731 12.2341 8.60555 12.2645 8.64202C12.3009 8.6785 12.3192 8.72105 12.3192 8.76968V9.92767C12.3192 9.9763 12.3009 10.0189 12.2645 10.0553C12.2341 10.0918 12.1945 10.11 12.1459 10.11H11.5806C11.532 10.11 11.4894 10.0918 11.4529 10.0553C11.4226 10.0189 11.4074 9.9763 11.4074 9.92767V9.27117H10.1946V9.88208C10.1946 10.6845 10.5715 11.0857 11.3253 11.0857H12.4012C13.155 11.0857 13.5319 10.6845 13.5319 9.88208V8.61467C13.5319 7.82443 13.155 7.42324 12.4012 7.41108H11.5806C11.532 7.41108 11.4894 7.39285 11.4529 7.35637C11.4226 7.3199 11.4074 7.27735 11.4074 7.22872V6.18014C11.4074 6.13151 11.4226 6.08896 11.4529 6.05249C11.4894 6.01601 11.532 5.99778 11.5806 5.99778H12.0821C12.1307 5.99778 12.1702 6.01601 12.2006 6.05249C12.2371 6.08896 12.2553 6.13151 12.2553 6.18014V6.64516ZM16.7506 5.09509H17.9816L16.7597 10.9945H15.2917L14.0699 5.09509H15.31L16.0303 9.39882L16.7506 5.09509Z" style="fill: rgb(202, 197, 218);"/>
      <path d="M16.9999 20.04C17.5742 20.04 18.0397 19.5745 18.0397 19.0002C18.0397 18.426 17.5742 17.9604 16.9999 17.9604C16.4257 17.9604 15.9601 18.426 15.9601 19.0002C15.9601 19.5745 16.4257 20.04 16.9999 20.04Z" style="fill: rgb(202, 197, 218);"/>
      <path fill-rule="evenodd" clip-rule="evenodd" d="M11 19C11.94 16.66 14.27 15 17 15C19.73 15 22.06 16.66 23 19C22.06 21.34 19.73 23 17 23C14.27 23 11.94 21.34 11 19ZM19.5328 19.0003C19.5328 20.3882 18.3988 21.5133 17 21.5133C15.6012 21.5133 14.4672 20.3882 14.4672 19.0003C14.4672 17.6124 15.6012 16.4873 17 16.4873C18.3988 16.4873 19.5328 17.6124 19.5328 19.0003Z" style="fill: rgb(202, 197, 218);"/>
    </g>
  </g>
</svg>
