<?xml version="1.0" encoding="utf-8"?>
<svg viewBox="0 0 24 24" fill="none" xmlns="http://www.w3.org/2000/svg">
  <g id="CSVWritter" transform="matrix(0.9999999999999999, 0, 0, 0.9999999999999999, 0, 0)">
    <g id="Subtract">
      <path fill-rule="evenodd" clip-rule="evenodd" d="M4.99756 2.03955C3.89609 2.03955 3.00317 2.93498 3.00317 4.03955V19.9785C3.00317 21.0831 3.89609 21.9785 4.99756 21.9785H11.001V19.9971L20.9999 9.99609H21.0101V4.03955C21.0101 2.93498 20.1172 2.03955 19.0157 2.03955H4.99756ZM8.21589 9.11616V10.028C8.21589 10.0766 8.19765 10.1192 8.16118 10.1556C8.13079 10.1921 8.09128 10.2103 8.04265 10.2103H7.46821C7.41958 10.2103 7.37703 10.1921 7.34055 10.1556C7.31016 10.1192 7.29496 10.0766 7.29496 10.028V6.05249C7.29496 6.00386 7.31016 5.96131 7.34055 5.92483C7.37703 5.88836 7.41958 5.87012 7.46821 5.87012H8.04265C8.09128 5.87012 8.13079 5.88836 8.16118 5.92483C8.19765 5.96131 8.21589 6.00386 8.21589 6.05249V6.7637H9.4286V6.20749C9.4286 5.4051 9.05172 5.00391 8.29795 5.00391H7.14908C6.39531 5.00391 6.01843 5.4051 6.01843 6.20749V9.88208C6.01843 10.6845 6.39531 11.0857 7.14908 11.0857H8.29795C9.05172 11.0857 9.4286 10.6845 9.4286 9.88208V9.11616H8.21589ZM12.2553 6.64516H13.468V6.20749C13.468 5.4051 13.0911 5.00391 12.3373 5.00391H11.3252C10.5715 5.00391 10.1946 5.4051 10.1946 6.20749V7.38373C10.1946 8.18612 10.5715 8.58731 11.3252 8.58731H12.1459C12.1945 8.58731 12.234 8.60555 12.2644 8.64202C12.3009 8.6785 12.3191 8.72105 12.3191 8.76968V9.92767C12.3191 9.9763 12.3009 10.0189 12.2644 10.0553C12.234 10.0918 12.1945 10.11 12.1459 10.11H11.5805C11.5319 10.11 11.4894 10.0918 11.4529 10.0553C11.4225 10.0189 11.4073 9.9763 11.4073 9.92767V9.27117H10.1946V9.88208C10.1946 10.6845 10.5715 11.0857 11.3252 11.0857H12.4012C13.1549 11.0857 13.5318 10.6845 13.5318 9.88208V8.61467C13.5318 7.82443 13.1549 7.42324 12.4012 7.41108H11.5805C11.5319 7.41108 11.4894 7.39285 11.4529 7.35637C11.4225 7.3199 11.4073 7.27735 11.4073 7.22872V6.18014C11.4073 6.13151 11.4225 6.08896 11.4529 6.05249C11.4894 6.01601 11.5319 5.99778 11.5805 5.99778H12.082C12.1307 5.99778 12.1702 6.01601 12.2006 6.05249C12.237 6.08896 12.2553 6.13151 12.2553 6.18014V6.64516ZM16.7506 5.09509H17.9815L16.7597 10.9945H15.2917L14.0698 5.09509H15.3099L16.0302 9.39882L16.7506 5.09509Z" style="fill: rgb(202, 197, 218);"/>
      <path d="M21.5299 12.15L22.8499 13.47C23.0499 13.67 23.0499 14 22.8499 14.19L21.8699 15.17L19.8299 13.13L20.8099 12.15C20.9999 11.95 21.3299 11.95 21.5299 12.15Z" style="fill: rgb(202, 197, 218);"/>
      <path d="M12.9999 22V19.96L19.1299 13.83L21.1699 15.88L15.0399 22H12.9999Z" style="fill: rgb(202, 197, 218);"/>
    </g>
  </g>
</svg>
