<svg width="80" height="80" viewBox="0 0 80 80" fill="none" xmlns="http://www.w3.org/2000/svg">
<path d="M24.9385 41.4015L39.0454 22.9426H24.2782L16.2943 33.5416L24.9385 41.4015Z" fill="#D23935"/>
<path d="M56.0615 38.4838L41.9546 56.9426H56.7218L64.7057 46.3437L56.0615 38.4838Z" fill="#FBB53E"/>
<path d="M27.9678 37.4715L18.7233 30.3262L25.9268 40.0915L27.9678 37.4715Z" fill="url(#paint0_linear_1447_53)"/>
<path d="M53.0322 42.4137L62.2767 49.5591L55.0732 39.7938L53.0322 42.4137Z" fill="url(#paint1_linear_1447_53)"/>
<path d="M39.2255 56.9426L18.7233 30.3262C17.1825 32.311 13.8331 36.7213 12.6326 38.2456C11.432 39.7699 12.2123 41.2625 12.7526 41.8183L24.5784 56.9426H39.2255Z" fill="#4580E8"/>
<path d="M41.7745 22.9426L62.2767 49.5591C63.8175 47.5743 67.1669 43.164 68.3674 41.6397C69.568 40.1153 68.7877 38.6227 68.2474 38.067L56.4216 22.9426H41.7745Z" fill="#1B9157"/>
<defs>
<linearGradient id="paint0_linear_1447_53" x1="53.0844" y1="35.1743" x2="40.592" y2="46.5534" gradientUnits="userSpaceOnUse">
<stop stop-opacity="0"/>
<stop offset="1" stop-opacity="0.15"/>
</linearGradient>
<linearGradient id="paint1_linear_1447_53" x1="53.0844" y1="35.1743" x2="40.592" y2="46.5534" gradientUnits="userSpaceOnUse">
<stop stop-opacity="0"/>
<stop offset="1" stop-opacity="0.15"/>
</linearGradient>
</defs>
</svg>
