<?xml version="1.0" encoding="utf-8"?>
<svg viewBox="0 0 24 24" fill="none" xmlns="http://www.w3.org/2000/svg">
  <g id="XMLWritter" transform="matrix(0.9999999999999999, 0, 0, 0.9999999999999999, 0, 0)">
    <g id="Vector">
      <path d="M12.9999 22V19.96L19.1299 13.83L21.1699 15.88L15.0399 22H12.9999Z" style="fill: rgb(202, 197, 218);"/>
      <path d="M21.5299 12.15L22.8499 13.47C23.0499 13.67 23.0499 14 22.8499 14.19L21.8699 15.17L19.8299 13.13L20.8099 12.15C20.9999 11.95 21.3299 11.95 21.5299 12.15Z" style="fill: rgb(202, 197, 218);"/>
      <path fill-rule="evenodd" clip-rule="evenodd" d="M3.00317 4.03955C3.00317 2.93498 3.89609 2.03955 4.99756 2.03955H19.0157C20.1172 2.03955 21.0101 2.93498 21.0101 4.03955V9.99609H20.9999L11.001 19.9971V21.9785H4.99756C3.89609 21.9785 3.00317 21.0831 3.00317 19.9785V4.03955ZM8.87055 4.95654L7.8824 8.06404L8.99527 11.1812H7.59459L6.94222 9.00687L6.28985 11.1812H4.87957L5.99244 8.06404L5.02348 4.95654H6.32822L6.94222 6.96727L7.55621 4.95654H8.87055ZM10.9348 11.1812H9.59173V6.13027C9.59173 5.28365 9.98827 4.86033 10.7813 4.86033H11.4913C11.9582 4.86033 12.2908 5.01427 12.489 5.32213C12.6745 5.01427 13.0071 4.86033 13.4868 4.86033H14.1967C14.9898 4.86033 15.3863 5.28365 15.3863 6.13027V11.1812H14.0432V6.01482C14.0432 5.96351 14.024 5.91861 13.9856 5.88013C13.9537 5.84165 13.9121 5.82241 13.8609 5.82241H13.3429C13.2917 5.82241 13.2469 5.84165 13.2086 5.88013C13.1766 5.91861 13.1606 5.96351 13.1606 6.01482V11.1812H11.8175V6.01482C11.8175 5.96351 11.7983 5.91861 11.7599 5.88013C11.7279 5.84165 11.6864 5.82241 11.6352 5.82241H11.1171C11.066 5.82241 11.0212 5.84165 10.9828 5.88013C10.9508 5.91861 10.9348 5.96351 10.9348 6.01482V11.1812ZM17.2989 9.9497H18.7667V11.0849H15.9558V4.86033H17.2989V9.9497Z" style="fill: rgb(202, 197, 218);"/>
    </g>
  </g>
</svg>
