<?xml version="1.0" encoding="utf-8"?>
<svg viewBox="0 0 24 24" fill="none" xmlns="http://www.w3.org/2000/svg">
  <g id="JSONReader" transform="matrix(0.9999999999999999, 0, 0, 0.9999999999999999, 0, 0)">
    <g id="Subtract">
      <path d="M14.1235 10.0322V6.055C14.1235 6.00635 14.1065 5.96378 14.0725 5.92729C14.0441 5.8908 14.0072 5.87256 13.9618 5.87256H13.4254C13.38 5.87256 13.3402 5.8908 13.3062 5.92729C13.2778 5.96378 13.2636 6.00635 13.2636 6.055V10.0322C13.2636 10.0808 13.2778 10.1234 13.3062 10.1599C13.3402 10.1964 13.38 10.2146 13.4254 10.2146H13.9618C14.0072 10.2146 14.0441 10.1964 14.0725 10.1599C14.1065 10.1234 14.1235 10.0808 14.1235 10.0322Z" style="fill: rgb(202, 197, 218);"/>
      <path fill-rule="evenodd" clip-rule="evenodd" d="M4.97119 2.03955C3.86662 2.03955 2.97119 2.93498 2.97119 4.03955V19.9785C2.97119 21.0831 3.86662 21.9785 4.97119 21.9785H10.4206C9.69719 21.109 9.11674 20.0908 8.72046 18.9703C9.98129 15.4051 13.1066 12.876 16.7683 12.876C18.3182 12.876 19.7719 13.329 21.0288 14.1219V4.03955C21.0288 2.93498 20.1334 2.03955 19.0288 2.03955H4.97119ZM10.398 6.64293H11.5304V6.20507C11.5304 5.40234 11.1785 5.00098 10.4746 5.00098H9.52958C8.82576 5.00098 8.47384 5.40234 8.47384 6.20507V7.3818C8.47384 8.18453 8.82576 8.5859 9.52958 8.5859H10.2958C10.3413 8.5859 10.3781 8.60414 10.4065 8.64063C10.4406 8.67712 10.4576 8.71969 10.4576 8.76834V9.92683C10.4576 9.97548 10.4406 10.018 10.4065 10.0545C10.3781 10.091 10.3413 10.1093 10.2958 10.1093H9.76798C9.72257 10.1093 9.68284 10.091 9.64878 10.0545C9.6204 10.018 9.60621 9.97548 9.60621 9.92683V9.27005H8.47384V9.88122C8.47384 10.6839 8.82576 11.0853 9.52958 11.0853H10.5342C11.2381 11.0853 11.59 10.6839 11.59 9.88122V8.61327C11.59 7.8227 11.2381 7.42133 10.5342 7.40917H9.76798C9.72257 7.40917 9.68284 7.39093 9.64878 7.35444C9.6204 7.31795 9.60621 7.27538 9.60621 7.22673V6.17771C9.60621 6.12906 9.6204 6.08649 9.64878 6.05C9.68284 6.01351 9.72257 5.99527 9.76798 5.99527H10.2362C10.2817 5.99527 10.3186 6.01351 10.3469 6.05C10.381 6.08649 10.398 6.12906 10.398 6.17771V6.64293ZM8.10601 5.0922H6.91404V10.0272C6.91404 10.0758 6.89701 10.1184 6.86296 10.1549C6.83458 10.1914 6.79768 10.2096 6.75228 10.2096H6.30103C6.25562 10.2096 6.21589 10.1914 6.18184 10.1549C6.15345 10.1184 6.13926 10.0758 6.13926 10.0272V9.14234H5.0069V9.88122C5.0069 10.6839 5.35881 11.0853 6.06264 11.0853H7.05027C7.75409 11.0853 8.10601 10.6839 8.10601 9.88122V5.0922ZM15.2766 6.20507V9.88122C15.2766 10.6839 14.9247 11.0853 14.2209 11.0853H13.0885C12.3847 11.0853 12.0328 10.6839 12.0328 9.88122V6.20507C12.0328 5.40234 12.3847 5.00098 13.0885 5.00098H14.2209C14.9247 5.00098 15.2766 5.40234 15.2766 6.20507ZM17.7829 10.9941H18.9749V6.20507C18.9749 5.40234 18.623 5.00098 17.9192 5.00098H16.8634C16.1596 5.00098 15.8077 5.40234 15.8077 6.20507V10.9941H16.9997V6.09561C16.9997 6.04696 17.0138 6.00439 17.0422 5.9679C17.0763 5.93141 17.116 5.91317 17.1614 5.91317H17.6212C17.6666 5.91317 17.7035 5.93141 17.7319 5.9679C17.7659 6.00439 17.7829 6.04696 17.7829 6.09561V10.9941Z" style="fill: rgb(202, 197, 218);"/>
      <path d="M16.9999 20.04C17.5742 20.04 18.0397 19.5745 18.0397 19.0002C18.0397 18.426 17.5742 17.9604 16.9999 17.9604C16.4257 17.9604 15.9601 18.426 15.9601 19.0002C15.9601 19.5745 16.4257 20.04 16.9999 20.04Z" style="fill: rgb(202, 197, 218);"/>
      <path fill-rule="evenodd" clip-rule="evenodd" d="M11 19C11.94 16.66 14.27 15 17 15C19.73 15 22.06 16.66 23 19C22.06 21.34 19.73 23 17 23C14.27 23 11.94 21.34 11 19ZM19.5328 19.0003C19.5328 20.3882 18.3988 21.5133 17 21.5133C15.6012 21.5133 14.4672 20.3882 14.4672 19.0003C14.4672 17.6124 15.6012 16.4873 17 16.4873C18.3988 16.4873 19.5328 17.6124 19.5328 19.0003Z" style="fill: rgb(202, 197, 218);"/>
    </g>
  </g>
</svg>
