<?xml version="1.0" encoding="utf-8"?>
<svg viewBox="0 0 24 24" fill="none" xmlns="http://www.w3.org/2000/svg">
  <g id="JSONWritter" transform="matrix(0.9999999999999999, 0, 0, 0.9999999999999999, 0, 0)">
    <g id="Subtract">
      <path d="M14.1235 10.0322V6.055C14.1235 6.00635 14.1064 5.96378 14.0724 5.92729C14.044 5.8908 14.0071 5.87256 13.9617 5.87256H13.4253C13.3799 5.87256 13.3402 5.8908 13.3061 5.92729C13.2777 5.96378 13.2636 6.00635 13.2636 6.055V10.0322C13.2636 10.0808 13.2777 10.1234 13.3061 10.1599C13.3402 10.1964 13.3799 10.2146 13.4253 10.2146H13.9617C14.0071 10.2146 14.044 10.1964 14.0724 10.1599C14.1064 10.1234 14.1235 10.0808 14.1235 10.0322Z" style="fill: rgb(202, 197, 218);"/>
      <path fill-rule="evenodd" clip-rule="evenodd" d="M4.99756 2.03955C3.89609 2.03955 3.00317 2.93498 3.00317 4.03955V19.9785C3.00317 21.0831 3.89609 21.9785 4.99756 21.9785H11.001V19.9971L20.9999 9.99609H21.0101V4.03955C21.0101 2.93498 20.1172 2.03955 19.0157 2.03955H4.99756ZM10.398 6.64293H11.5303V6.20507C11.5303 5.40234 11.1784 5.00098 10.4746 5.00098H9.52952C8.8257 5.00098 8.47378 5.40234 8.47378 6.20507V7.3818C8.47378 8.18453 8.8257 8.5859 9.52952 8.5859H10.2958C10.3412 8.5859 10.3781 8.60414 10.4065 8.64063C10.4405 8.67712 10.4576 8.71969 10.4576 8.76834V9.92683C10.4576 9.97548 10.4405 10.018 10.4065 10.0545C10.3781 10.091 10.3412 10.1093 10.2958 10.1093H9.76791C9.72251 10.1093 9.68278 10.091 9.64872 10.0545C9.62034 10.018 9.60615 9.97548 9.60615 9.92683V9.27005H8.47378V9.88122C8.47378 10.6839 8.8257 11.0853 9.52952 11.0853H10.5342C11.238 11.0853 11.5899 10.6839 11.5899 9.88122V8.61327C11.5899 7.8227 11.238 7.42133 10.5342 7.40917H9.76791C9.72251 7.40917 9.68278 7.39093 9.64872 7.35444C9.62034 7.31795 9.60615 7.27538 9.60615 7.22673V6.17771C9.60615 6.12906 9.62034 6.08649 9.64872 6.05C9.68278 6.01351 9.72251 5.99527 9.76791 5.99527H10.2362C10.2816 5.99527 10.3185 6.01351 10.3469 6.05C10.3809 6.08649 10.398 6.12906 10.398 6.17771V6.64293ZM8.10595 5.0922H6.91398V10.0272C6.91398 10.0758 6.89695 10.1184 6.8629 10.1549C6.83452 10.1914 6.79762 10.2096 6.75221 10.2096H6.30097C6.25556 10.2096 6.21583 10.1914 6.18177 10.1549C6.15339 10.1184 6.1392 10.0758 6.1392 10.0272V9.14234H5.00684V9.88122C5.00684 10.6839 5.35875 11.0853 6.06258 11.0853H7.05021C7.75403 11.0853 8.10595 10.6839 8.10595 9.88122V5.0922ZM15.2766 6.20507V9.88122C15.2766 10.6839 14.9247 11.0853 14.2208 11.0853H13.0885C12.3846 11.0853 12.0327 10.6839 12.0327 9.88122V6.20507C12.0327 5.40234 12.3846 5.00098 13.0885 5.00098H14.2208C14.9247 5.00098 15.2766 5.40234 15.2766 6.20507ZM17.7829 10.9941H18.9749V6.20507C18.9749 5.40234 18.6229 5.00098 17.9191 5.00098H16.8634C16.1595 5.00098 15.8076 5.40234 15.8076 6.20507V10.9941H16.9996V6.09561C16.9996 6.04696 17.0138 6.00439 17.0422 5.9679C17.0762 5.93141 17.116 5.91317 17.1614 5.91317H17.6211C17.6665 5.91317 17.7034 5.93141 17.7318 5.9679C17.7659 6.00439 17.7829 6.04696 17.7829 6.09561V10.9941Z" style="fill: rgb(202, 197, 218);"/>
      <path d="M21.5299 12.15L22.8499 13.47C23.0499 13.67 23.0499 14 22.8499 14.19L21.8699 15.17L19.8299 13.13L20.8099 12.15C20.9999 11.95 21.3299 11.95 21.5299 12.15Z" style="fill: rgb(202, 197, 218);"/>
      <path d="M12.9999 22V19.96L19.1299 13.83L21.1699 15.88L15.0399 22H12.9999Z" style="fill: rgb(202, 197, 218);"/>
    </g>
  </g>
</svg>
