<?xml version="1.0" encoding="UTF-8" standalone="no"?>
<svg
        xmlns:dc="http://purl.org/dc/elements/1.1/"
        xmlns:cc="http://creativecommons.org/ns#"
        xmlns:rdf="http://www.w3.org/1999/02/22-rdf-syntax-ns#"
        xmlns:svg="http://www.w3.org/2000/svg"
        xmlns="http://www.w3.org/2000/svg"
        xmlns:sodipodi="http://sodipodi.sourceforge.net/DTD/sodipodi-0.dtd"
        xmlns:inkscape="http://www.inkscape.org/namespaces/inkscape"
        width="24"
        height="24"
        preserveAspectRatio="xMidYMid meet"
        viewBox="0 0 24 24"
        style="-ms-transform: rotate(360deg); -webkit-transform: rotate(360deg); transform: rotate(360deg);"
        version="1.1"
        id="svg8"
        sodipodi:docname="bxs-file-json.svg"
        inkscape:version="0.92.5 (2060ec1f9f, 2020-04-08)">
  <metadata
          id="metadata14">
    <rdf:RDF>
      <cc:Work
              rdf:about="">
        <dc:format>image/svg+xml</dc:format>
        <dc:type
                rdf:resource="http://purl.org/dc/dcmitype/StillImage" />
      </cc:Work>
    </rdf:RDF>
  </metadata>
  <defs
          id="defs12" />
  <sodipodi:namedview
          pagecolor="#ffffff"
          bordercolor="#666666"
          borderopacity="1"
          objecttolerance="10"
          gridtolerance="10"
          guidetolerance="10"
          inkscape:pageopacity="0"
          inkscape:pageshadow="2"
          inkscape:window-width="1920"
          inkscape:window-height="1022"
          id="namedview10"
          showgrid="false"
          inkscape:zoom="9.8333333"
          inkscape:cx="12.250066"
          inkscape:cy="25.610964"
          inkscape:window-x="2560"
          inkscape:window-y="0"
          inkscape:window-maximized="1"
          inkscape:current-layer="svg8" />
  <path
          d="M 6,2 A 2,2 0 0 0 4,4 v 16 a 2,2 0 0 0 2,2 h 12 a 2,2 0 0 0 2,-2 V 8 L 14,2 Z m 7,2 5,5 h -4 -1 z m -6.613281,9.990234 h 0.890625 l 0.820312,1.369141 0.804688,-1.369141 h 0.86914 l -1.195312,1.886719 1.287109,1.919922 H 8.941406 L 8.054687,16.357422 7.169922,17.796875 H 6.304687 l 1.263672,-1.962891 z m 3.955078,0 h 1.099609 l 0.900391,2.910157 h 0.01563 L 13.3125,13.990234 h 1.099609 v 3.806641 h -0.751953 v -1.802734 c 0,-0.08507 2.17e-4,-0.181858 0.002,-0.292969 0.0035,-0.111111 0.01628,-0.407552 0.03711,-0.886719 h -0.02344 l -0.982422,2.982422 H 11.95317 l -0.916016,-2.986328 h -0.02344 c 0.03299,0.607639 0.04883,1.011719 0.04883,1.214844 v 1.771484 h -0.720703 z m 5.029297,0 h 0.80664 v 3.140625 h 1.544922 v 0.666016 h -2.351562 z"
          id="path4"
          inkscape:connector-curvature="0"
          style="fill:#333" />
</svg>
