<svg width="24" height="24" viewBox="0 0 24 24" fill="none" xmlns="http://www.w3.org/2000/svg">
    <path fill-rule="evenodd" clip-rule="evenodd" d="M4.94238 2.97266C3.83781 2.97266 2.94238 3.86809 2.94238 4.97266V19C2.94238 20.1046 3.83781 21 4.94238 21H19C20.1046 21 21 20.1046 21 19V4.97266C21 3.86809 20.1046 2.97266 19 2.97266H4.94238ZM7.83535 11.9971L8.82629 8.88965H7.50825L6.89252 10.9004L6.27679 8.88965H4.96838L5.94007 11.9971L4.82406 15.1143H6.23831L6.89252 12.94L7.54673 15.1143H8.95136L7.83535 11.9971ZM9.5495 15.1143H10.8964V9.94793C10.8964 9.89662 10.9124 9.85172 10.9445 9.81324C10.983 9.77475 11.0279 9.75551 11.0792 9.75551H11.5987C11.65 9.75551 11.6917 9.77475 11.7238 9.81324C11.7623 9.85172 11.7815 9.89662 11.7815 9.94793V15.1143H13.1284V9.94793C13.1284 9.89662 13.1444 9.85172 13.1765 9.81324C13.215 9.77475 13.2599 9.75551 13.3112 9.75551H13.8307C13.882 9.75551 13.9237 9.77475 13.9558 9.81324C13.9943 9.85172 14.0135 9.89662 14.0135 9.94793V15.1143H15.3604V10.0634C15.3604 9.21675 14.9628 8.79344 14.1674 8.79344H13.4555C12.9745 8.79344 12.641 8.94737 12.455 9.25523C12.2561 8.94737 11.9226 8.79344 11.4544 8.79344H10.7425C9.94715 8.79344 9.5495 9.21675 9.5495 10.0634V15.1143ZM19.105 13.979H17.633V8.88965H16.2861V15.1143H19.105V13.979Z" fill="#26282D"/>
</svg>
