<svg width="80" height="80" viewBox="0 0 80 80" fill="none" xmlns="http://www.w3.org/2000/svg">
    <path d="M26.6183 45.3712L29.1193 53.0083L68.2511 64.1687L26.6183 45.3712Z" fill="#0068E0"/>
    <path
        d="M40.2797 32.7248C40.7609 34.6299 40.2548 35.8402 37.1718 35.5404L68.0957 64.1984C68.4464 64.339 68.5074 64.104 68.265 63.7459L40.2797 32.7248Z"
        fill="#000094"/>
    <path
        d="M39.2971 18.8969C39.2971 18.8969 38.1942 19.9378 39.3544 21.2859C40.2149 22.287 41.502 21.6726 41.502 21.6726C41.502 21.6726 42.6872 21.0074 41.7869 19.6047C40.6165 17.7801 39.2971 18.8969 39.2971 18.8969ZM68.327 64.3242L24.4569 44.7819C24.4569 44.7819 10.1229 35.916 11.6079 32.4139C13.0541 29.0238 25.83 35.855 27.1818 36.1696C28.5336 36.4869 29.2858 35.6311 29.3108 35.0343C29.3506 34.1738 27.4131 31.7126 28.4179 30.6615C29.4191 29.6132 32.6935 31.6552 32.6935 31.6552L35.35 33.4946L68.327 64.3242Z"
        fill="#1CCCFC"/>
    <path
        d="M68.5 64.1401L39.5497 32.0707C39.5497 32.0707 34.3349 26.15 34.5515 24.4549C34.768 22.7598 41.6935 28.1707 41.6935 28.1707C41.6935 28.1707 42.4633 28.9119 43.1933 28.7851C43.9234 28.662 43.1425 27.4481 43.1425 27.4481C43.1425 27.4481 41.9461 24.6686 42.7446 24.1699C43.5477 23.6749 45.5749 25.7669 45.5749 25.7669C45.5749 25.7669 46.0811 26.2915 46.6122 26.15C47.1433 26.0056 46.8583 24.8389 46.8583 24.8389C46.8583 24.8389 43.197 16.3959 44.794 15.7667C47.2302 14.8017 50.6999 21.7883 51.8639 23.9636C52.1563 24.5641 68.5 64.1401 68.5 64.1401ZM23.3216 24.4586C23.3216 24.4586 21.8366 25.4421 23.4882 27.3324C25.0065 29.0747 26.3583 28.1707 26.3583 28.1707C26.3583 28.1707 27.7601 27.3139 26.4157 25.6984C24.6373 23.5629 23.3216 24.4586 23.3216 24.4586Z"
        fill="#1CCCFC"/>
</svg>
