<svg width="32" height="32" viewBox="0 0 32 32" fill="none" xmlns="http://www.w3.org/2000/svg">
    <path d="M18.8313 13.3761V8.07317C18.8313 8.0083 18.8086 7.95154 18.7632 7.90289C18.7254 7.85424 18.6762 7.82992 18.6157 7.82992H17.9005C17.8399 7.82992 17.787 7.85424 17.7415 7.90289C17.7037 7.95154 17.6848 8.0083 17.6848 8.07317V13.3761C17.6848 13.4409 17.7037 13.4977 17.7415 13.5463C17.787 13.595 17.8399 13.6193 17.9005 13.6193H18.6157C18.6762 13.6193 18.7254 13.595 18.7632 13.5463C18.8086 13.4977 18.8313 13.4409 18.8313 13.3761Z" fill="currentColor"/>
    <path fill-rule="evenodd" clip-rule="evenodd" d="M6.66345 2.71924C5.19483 2.71924 4.00427 3.91315 4.00427 5.38591V26.6379C4.00427 28.1106 5.19483 29.3045 6.66345 29.3045H14.668V26.6627L28 13.328H28.0135V5.38591C28.0135 3.91315 26.8229 2.71924 25.3543 2.71924H6.66345ZM13.864 8.85707H15.3738V8.27327C15.3738 7.20296 14.9046 6.66781 13.9661 6.66781H12.7061C11.7676 6.66781 11.2984 7.20296 11.2984 8.27327V9.84224C11.2984 10.9125 11.7676 11.4477 12.7061 11.4477H13.7278C13.7883 11.4477 13.8375 11.472 13.8753 11.5207C13.9207 11.5693 13.9434 11.6261 13.9434 11.691V13.2356C13.9434 13.3005 13.9207 13.3572 13.8753 13.4059C13.8375 13.4545 13.7883 13.4789 13.7278 13.4789H13.0239C12.9634 13.4789 12.9104 13.4545 12.865 13.4059C12.8272 13.3572 12.8082 13.3005 12.8082 13.2356V12.3599H11.2984V13.1748C11.2984 14.2451 11.7676 14.7803 12.7061 14.7803H14.0456C14.984 14.7803 15.4533 14.2451 15.4533 13.1748V11.4842C15.4533 10.4301 14.984 9.89495 14.0456 9.87873H13.0239C12.9634 9.87873 12.9104 9.85441 12.865 9.80575C12.8272 9.7571 12.8082 9.70034 12.8082 9.63548V8.23678C12.8082 8.17191 12.8272 8.11516 12.865 8.0665C12.9104 8.01785 12.9634 7.99353 13.0239 7.99353H13.6483C13.7088 7.99353 13.758 8.01785 13.7959 8.0665C13.8413 8.11516 13.864 8.17191 13.864 8.23678V8.85707ZM10.808 6.78943H9.21868V13.3694C9.21868 13.4343 9.19598 13.491 9.15057 13.5397C9.11273 13.5883 9.06354 13.6126 9.00299 13.6126H8.40133C8.34079 13.6126 8.28781 13.5883 8.24241 13.5397C8.20457 13.491 8.18565 13.4343 8.18565 13.3694V12.1896H6.67582V13.1748C6.67582 14.2451 7.14504 14.7803 8.08348 14.7803H9.40032C10.3388 14.7803 10.808 14.2451 10.808 13.1748V6.78943ZM20.3688 8.27327V13.1748C20.3688 14.2451 19.8996 14.7803 18.9611 14.7803H17.4513C16.5129 14.7803 16.0437 14.2451 16.0437 13.1748V8.27327C16.0437 7.20296 16.5129 6.66781 17.4513 6.66781H18.9611C19.8996 6.66781 20.3688 7.20296 20.3688 8.27327ZM23.7106 14.6586H25.2998V8.27327C25.2998 7.20296 24.8306 6.66781 23.8922 6.66781H22.4845C21.5461 6.66781 21.0769 7.20296 21.0769 8.27327V14.6586H22.6662V8.12732C22.6662 8.06245 22.6851 8.00569 22.7229 7.95704C22.7683 7.90839 22.8213 7.88406 22.8819 7.88406H23.4949C23.5554 7.88406 23.6046 7.90839 23.6424 7.95704C23.6879 8.00569 23.7106 8.06245 23.7106 8.12732V14.6586Z" fill="currentColor"/>
    <path d="M28.7066 16.1998L30.4666 17.9598C30.7333 18.2265 30.7333 18.6665 30.4666 18.9198L29.16 20.2265L26.44 17.5065L27.7466 16.1998C28 15.9332 28.44 15.9332 28.7066 16.1998Z" fill="currentColor"/>
    <path d="M17.3333 29.3332V26.6132L25.5066 18.4398L28.2266 21.1732L20.0533 29.3332H17.3333Z" fill="currentColor"/>
</svg>
