<?xml version="1.0" encoding="UTF-8"?>
<svg width="700pt" height="700pt" version="1.1" viewBox="0 0 700 700" xmlns="http://www.w3.org/2000/svg">
 <path d="m430 53.332c-42.434 0-83.133 16.859-113.14 46.863-30.008 30.008-46.863 70.703-46.863 113.14 0 42.438 16.855 83.133 46.863 113.14 30.004 30.008 70.703 46.863 113.14 46.863s83.133-16.855 113.14-46.863c30.008-30.004 46.863-70.699 46.863-113.14 0-42.434-16.855-83.129-46.863-113.14-30.004-30.004-70.703-46.863-113.14-46.863zm93.332 173.33-14.531 0.003907c-1.9219 11.836-6.4766 23.094-13.336 32.934l10.398 10.535 0.003907-0.003907c4.1094 3.7344 5.4766 9.625 3.4297 14.785-2.0469 5.1602-7.0781 8.5117-12.629 8.4141-3.5664-0.011719-6.9727-1.4531-9.4688-4l-10.535-10.398h0.003907c-9.8398 6.8555-21.098 11.414-32.934 13.332v14.402c0 7.3633-5.9688 13.332-13.336 13.332-7.3633 0-13.332-5.9688-13.332-13.332v-14.535c-11.84-1.918-23.094-6.4766-32.934-13.332l-10.535 10.398h0.003906c-2.6641 2.8008-6.4102 4.3086-10.27 4.1328-5.3906-0.019531-10.238-3.2891-12.281-8.2812-2.043-4.9883-0.87891-10.719 2.9492-14.516l10.398-10.535c-6.8555-9.8398-11.41-21.094-13.332-32.934h-14.398c-7.3633 0-13.336-5.9688-13.336-13.332s5.9727-13.336 13.336-13.336h14.934c1.918-11.836 6.4766-23.094 13.332-32.934l-10.398-10.535v0.003906c-2.8242-2.418-4.5078-5.9023-4.6523-9.6133-0.14453-3.7109 1.2695-7.3164 3.8945-9.9414 2.6289-2.6289 6.2305-4.0391 9.9453-3.8945 3.7109 0.14062 7.1953 1.8281 9.6094 4.6484l10.535 10.398v0.003906c9.8398-6.8594 21.094-11.414 32.934-13.336v-15.199c0-7.3633 5.9688-13.332 13.332-13.332 7.3633 0 13.332 5.9688 13.332 13.332v14.934c11.84 1.918 23.094 6.4766 32.934 13.332l10.535-10.398c2.418-2.8203 5.8984-4.5078 9.6133-4.6523 3.7109-0.14062 7.3164 1.2695 9.9414 3.8984 2.6289 2.625 4.0391 6.2305 3.8945 9.9414-0.14062 3.7109-1.8281 7.1953-4.6484 9.6133l-10.398 10.535-0.003907-0.003906c6.8594 9.8398 11.414 21.094 13.336 32.934h14.664c7.3633 0 13.336 5.9688 13.336 13.332 0 7.3672-5.9727 13.336-13.336 13.336zm-93.332-66.668v0.003906c-14.145 0-27.711 5.6172-37.711 15.621-10.004 10-15.621 23.566-15.621 37.711s5.6172 27.711 15.621 37.715c10 10 23.566 15.621 37.711 15.621s27.711-5.6211 37.711-15.621c10.004-10.004 15.621-23.57 15.621-37.715s-5.6172-27.711-15.621-37.711c-10-10.004-23.566-15.621-37.711-15.621zm0 80v0.003906c-7.0742 0-13.855-2.8086-18.855-7.8086-5-5.0039-7.8125-11.785-7.8125-18.859 0-7.0703 2.8125-13.855 7.8125-18.855s11.781-7.8086 18.855-7.8086 13.855 2.8086 18.855 7.8086 7.8125 11.785 7.8125 18.855c0 7.0742-2.8125 13.855-7.8125 18.859-5 5-11.781 7.8086-18.855 7.8086zm0-213.33c18.066 0.011719 36.031 2.6602 53.332 7.8672v-21.203c0-3.5352-1.4023-6.9258-3.9023-9.4258-2.5039-2.5-5.8945-3.9062-9.4297-3.9062h-226.67v120c0 3.5352-1.4023 6.9258-3.9023 9.4297-2.5039 2.5-5.8945 3.9023-9.4297 3.9023h-120v413.34c0 3.5352 1.4062 6.9258 3.9062 9.4258s5.8906 3.9062 9.4258 3.9062h346.67c3.5352 0 6.9258-1.4062 9.4297-3.9062 2.5-2.5 3.9023-5.8906 3.9023-9.4258v-154.54c-34.348 10.301-70.941 10.488-105.39 0.54297-34.453-9.9492-65.316-29.609-88.891-56.633-23.574-27.027-38.863-60.27-44.043-95.754-5.1758-35.488-0.023437-71.715 14.844-104.35 14.867-32.633 38.82-60.297 68.996-79.676s65.293-29.652 101.16-29.598zm-40 493.33h-186.67c-7.3633 0-13.332-5.9688-13.332-13.332s5.9688-13.336 13.332-13.336h186.67c7.3633 0 13.332 5.9727 13.332 13.336s-5.9688 13.332-13.332 13.332zm0-80c7.3633 0 13.332 5.9688 13.332 13.332s-5.9688 13.336-13.332 13.336h-186.67c-7.3633 0-13.332-5.9727-13.332-13.336s5.9688-13.332 13.332-13.332zm-173.33-333.33h-98.801l98.801-98.801z"/>
</svg>
